<mxfile host="app.diagrams.net" modified="2023-10-04T11:18:29.642Z" agent="Mozilla/5.0 (X11; Linux x86_64) AppleWebKit/537.36 (KHTML, like Gecko) Chrome/116.0.0.0 Safari/537.36" etag="5DiZY646uFCr-a6oySRa" version="21.8.0" type="github">
  <diagram name="Page-1" id="n6uadNIOjPGTGixwVm-v">
    <mxGraphModel dx="1364" dy="771" grid="1" gridSize="10" guides="1" tooltips="1" connect="1" arrows="1" fold="1" page="1" pageScale="1" pageWidth="850" pageHeight="1100" math="0" shadow="0">
      <root>
        <mxCell id="0" />
        <mxCell id="1" parent="0" />
        <mxCell id="i98NurGqfcMy4_jKYmb9-1" value="CodeBERT" style="rounded=0;whiteSpace=wrap;html=1;" vertex="1" parent="1">
          <mxGeometry x="245" y="550" width="360" height="80" as="geometry" />
        </mxCell>
        <mxCell id="i98NurGqfcMy4_jKYmb9-5" value="" style="edgeStyle=orthogonalEdgeStyle;rounded=0;orthogonalLoop=1;jettySize=auto;html=1;" edge="1" parent="1" source="i98NurGqfcMy4_jKYmb9-4" target="i98NurGqfcMy4_jKYmb9-1">
          <mxGeometry relative="1" as="geometry">
            <Array as="points">
              <mxPoint x="305" y="630" />
              <mxPoint x="305" y="630" />
            </Array>
          </mxGeometry>
        </mxCell>
        <mxCell id="i98NurGqfcMy4_jKYmb9-4" value="Code" style="rounded=1;whiteSpace=wrap;html=1;" vertex="1" parent="1">
          <mxGeometry x="245" y="680" width="120" height="60" as="geometry" />
        </mxCell>
        <mxCell id="i98NurGqfcMy4_jKYmb9-7" value="" style="edgeStyle=orthogonalEdgeStyle;rounded=0;orthogonalLoop=1;jettySize=auto;html=1;" edge="1" parent="1" source="i98NurGqfcMy4_jKYmb9-6" target="i98NurGqfcMy4_jKYmb9-1">
          <mxGeometry relative="1" as="geometry">
            <Array as="points">
              <mxPoint x="535" y="630" />
              <mxPoint x="535" y="630" />
            </Array>
          </mxGeometry>
        </mxCell>
        <mxCell id="i98NurGqfcMy4_jKYmb9-6" value="Summary" style="rounded=1;whiteSpace=wrap;html=1;" vertex="1" parent="1">
          <mxGeometry x="475" y="680" width="120" height="60" as="geometry" />
        </mxCell>
        <mxCell id="i98NurGqfcMy4_jKYmb9-8" value="FFN" style="rounded=0;whiteSpace=wrap;html=1;" vertex="1" parent="1">
          <mxGeometry x="300" y="440" width="245" height="50" as="geometry" />
        </mxCell>
        <mxCell id="i98NurGqfcMy4_jKYmb9-10" value="" style="endArrow=classic;html=1;rounded=0;exitX=0.172;exitY=0.013;exitDx=0;exitDy=0;exitPerimeter=0;entryX=0.25;entryY=1;entryDx=0;entryDy=0;" edge="1" parent="1" source="i98NurGqfcMy4_jKYmb9-1" target="i98NurGqfcMy4_jKYmb9-8">
          <mxGeometry width="50" height="50" relative="1" as="geometry">
            <mxPoint x="400" y="420" as="sourcePoint" />
            <mxPoint x="450" y="370" as="targetPoint" />
          </mxGeometry>
        </mxCell>
        <mxCell id="i98NurGqfcMy4_jKYmb9-11" value="" style="endArrow=classic;html=1;rounded=0;exitX=0.808;exitY=0.038;exitDx=0;exitDy=0;exitPerimeter=0;entryX=0.694;entryY=0.98;entryDx=0;entryDy=0;entryPerimeter=0;" edge="1" parent="1" source="i98NurGqfcMy4_jKYmb9-1" target="i98NurGqfcMy4_jKYmb9-8">
          <mxGeometry width="50" height="50" relative="1" as="geometry">
            <mxPoint x="400" y="420" as="sourcePoint" />
            <mxPoint x="450" y="370" as="targetPoint" />
          </mxGeometry>
        </mxCell>
      </root>
    </mxGraphModel>
  </diagram>
</mxfile>
